<?xml version="1.0" encoding="utf-8"?>
<!-- Generator: Adobe Illustrator 21.1.0, SVG Export Plug-In . SVG Version: 6.00 Build 0)  -->
<svg version="1.1" id="Слой_1" xmlns="http://www.w3.org/2000/svg" xmlns:xlink="http://www.w3.org/1999/xlink" x="0px" y="0px"
	 viewBox="0 0 34 36" style="enable-background:new 0 0 34 36;" xml:space="preserve">
<style type="text/css">
	.st0{fill:#262626;}
</style>
<title>configurator</title>
<path class="st0" d="M33,4H14c-0.5-2.3-2.5-4-4.9-4S4.7,1.7,4.2,4H1C0.4,4,0,4.4,0,5s0.4,1,1,1h3.2c0.5,2.3,2.5,4,4.9,4
	s4.4-1.7,4.9-4h19c0.6,0,1-0.4,1-1S33.6,4,33,4z M9.1,8c-1.7,0-3-1.3-3-3s1.3-3,3-3s3,1.3,3,3S10.8,8,9.1,8z"/>
<path class="st0" d="M33,30H22c-0.5-2.3-2.5-4-4.9-4s-4.4,1.7-4.9,4H1c-0.6,0-1,0.4-1,1s0.4,1,1,1h11.2c0.5,2.3,2.5,4,4.9,4
	s4.4-1.7,4.9-4h11c0.6,0,1-0.4,1-1S33.6,30,33,30z M17.1,34c-1.7,0-3-1.3-3-3s1.3-3,3-3s3,1.3,3,3S18.8,34,17.1,34z"/>
<path class="st0" d="M33,17h-3c-0.5-2.3-2.5-4-4.9-4s-4.4,1.7-4.9,4H1c-0.6,0-1,0.4-1,1s0.4,1,1,1h19.2c0.5,2.3,2.5,4,4.9,4
	s4.4-1.7,4.9-4h3c0.6,0,1-0.4,1-1S33.6,17,33,17z M25.1,21c-1.7,0-3-1.3-3-3s1.3-3,3-3s3,1.3,3,3S26.8,21,25.1,21z"/>
</svg>
