<svg id="Слой_1" data-name="Слой 1" xmlns="http://www.w3.org/2000/svg" viewBox="0 0 141 48"><defs><style>.cls-1{fill:#4f4f4f;}.cls-2{fill:#333;}</style></defs><title>logo_futer_grey</title><path class="cls-1" d="M2.86,0h42a3,3,0,0,1,3,3V45a3,3,0,0,1-3,3h-42a3,3,0,0,1-3-3V3A3,3,0,0,1,2.86,0Z"/><path class="cls-2" d="M23.86,7a17,17,0,1,1-17,17,17,17,0,0,1,17-17m0-2a19,19,0,1,0,19,19A19,19,0,0,0,23.86,5Z"/><path class="cls-2" d="M17.9,32.52v-17h5.62a8.56,8.56,0,0,1,3.22.46,4.46,4.46,0,0,1,2.11,1.75,5.28,5.28,0,0,1,.77,2.9,5.44,5.44,0,0,1-.77,2.84,4.22,4.22,0,0,1-2.09,1.81h0a6.17,6.17,0,0,1,.55.89l3.5,6.34H27.34L24,26.16H21v6.36Zm3.1-9h2.78a2.64,2.64,0,0,0,2-.73,2.7,2.7,0,0,0,.72-2,2.25,2.25,0,0,0-1.34-2.33,4.77,4.77,0,0,0-1.87-.29H21Z"/><path class="cls-1" d="M67.7,30.48l1.68-2.33a8.07,8.07,0,0,0,2,1.27,5.3,5.3,0,0,0,2.24.53,2.83,2.83,0,0,0,1.82-.54A1.72,1.72,0,0,0,76.1,28a1.91,1.91,0,0,0-.82-1.54,8.17,8.17,0,0,0-2-1.13q-1.16-.48-2.34-1.06a5.61,5.61,0,0,1-2-1.63,4,4,0,0,1-.82-2.52,4.43,4.43,0,0,1,1.64-3.58A6.29,6.29,0,0,1,74,15.19,7.11,7.11,0,0,1,79,17l-1.37,2.52a6,6,0,0,0-1.74-1.07,5.24,5.24,0,0,0-2-.42,3.08,3.08,0,0,0-1.88.53A1.68,1.68,0,0,0,71.25,20a1.83,1.83,0,0,0,.82,1.49,8.08,8.08,0,0,0,2,1.08q1.16.46,2.34,1a5.49,5.49,0,0,1,2,1.62,4.07,4.07,0,0,1,.82,2.57,4.77,4.77,0,0,1-1.51,3.6,5.78,5.78,0,0,1-4.15,1.44,8.64,8.64,0,0,1-3.17-.6A7.65,7.65,0,0,1,67.7,30.48Z"/><path class="cls-1" d="M82.77,32.52v-17H93v2.66H85.9v4.46h5.7V25.3H85.87v4.58h7.49v2.66Z"/><path class="cls-1" d="M101.08,32.52l-6.14-17h3.34L102,26.59l.65,2.5h0q.34-1.51.65-2.5l3.79-11.11h3.29l-6.14,17Z"/><path class="cls-1" d="M113.11,32.52v-17h10.2v2.66h-7.1v4.46h5.74V25.3H116.2v4.58h7.49v2.66Z"/><path class="cls-1" d="M127.22,32.52v-17h3.1l6.46,9.84q.29.46.64,1.12l.56,1.09.22.43h0q-.17-1.63-.17-2.64V15.48h3.07v17H138l-6.46-9.82c-.19-.3-.4-.68-.64-1.12l-.56-1.09-.22-.43h0q.17,1.63.17,2.64v9.82Z"/></svg>