<?xml version="1.0" encoding="utf-8"?>
<!-- Generator: Adobe Illustrator 21.1.0, SVG Export Plug-In . SVG Version: 6.00 Build 0)  -->
<svg version="1.1" id="Слой_1" xmlns="http://www.w3.org/2000/svg" xmlns:xlink="http://www.w3.org/1999/xlink" x="0px" y="0px"
	 viewBox="0 0 42 36" style="enable-background:new 0 0 42 36;" xml:space="preserve">
<style type="text/css">
	.st0{fill:#262626;}
</style>
<title>monitori</title>
<path class="st0" d="M41,0H1C0.4,0,0,0.4,0,1v25.7c0,0.6,0.4,1,1,1h19V34h-4.8c-0.6,0-1,0.4-1,1s0.4,1,1,1h11.5c0.6,0,1-0.4,1-1
	s-0.4-1-1-1H22v-6.3h19c0.6,0,1-0.4,1-1V1C42,0.4,41.6,0,41,0z M40,2v17.7H2V2H40z M2,25.7v-4h38v4H2z"/>
<g>
	<path class="st0" d="M21.8,24.5h-1.5c-0.6,0-1-0.4-1-1s0.4-1,1-1h1.5c0.6,0,1,0.4,1,1S22.3,24.5,21.8,24.5z"/>
</g>
</svg>
