<?xml version="1.0" encoding="utf-8"?>
<!-- Generator: Adobe Illustrator 21.1.0, SVG Export Plug-In . SVG Version: 6.00 Build 0)  -->
<svg version="1.1" id="Слой_1" xmlns="http://www.w3.org/2000/svg" xmlns:xlink="http://www.w3.org/1999/xlink" x="0px" y="0px"
	 viewBox="0 0 42 36" style="enable-background:new 0 0 42 36;" xml:space="preserve">
<style type="text/css">
	.st0{fill:#262626;}
</style>
<title>orgtehnika</title>
<path class="st0" d="M41,9.4h-5.5V1c0-0.6-0.4-1-1-1H7.5c-0.6,0-1,0.4-1,1v8.5H1c-0.6,0-1,0.4-1,1v18.9c0,0.6,0.4,1,1,1h5.5V35
	c0,0.6,0.4,1,1,1h26.9c0.6,0,1-0.4,1-1v-4.7H41c0.6,0,1-0.4,1-1V10.4C42,9.9,41.5,9.4,41,9.4z M8.5,2h24.9v7.4H8.5V2z M33.5,34H8.5
	v-7.4h24.9V34z M40,28.3h-4.5v-2.8c0-0.6-0.4-1-1-1H7.5c-0.6,0-1,0.4-1,1v2.8H2V11.4h38V28.3z"/>
<g>
	<path class="st0" d="M34.3,16.7h-1.5c-0.6,0-1-0.4-1-1c0-0.6,0.4-1,1-1h1.5c0.6,0,1,0.4,1,1C35.3,16.3,34.8,16.7,34.3,16.7z"/>
</g>
</svg>
