<?xml version="1.0" encoding="utf-8"?>
<!-- Generator: Adobe Illustrator 21.1.0, SVG Export Plug-In . SVG Version: 6.00 Build 0)  -->
<svg version="1.1" id="Слой_1" xmlns="http://www.w3.org/2000/svg" xmlns:xlink="http://www.w3.org/1999/xlink" x="0px" y="0px"
	 viewBox="0 0 48 36" style="enable-background:new 0 0 48 36;" xml:space="preserve">
<style type="text/css">
	.st0{fill:#262626;}
</style>
<title>setevoe_oborudovanie</title>
<path class="st0" d="M47,22.7h-4.4V1c0-0.6-0.4-1-1-1h-3.8c-0.6,0-1,0.4-1,1v21.7H11V1c0-0.6-0.4-1-1-1H6.1c-0.6,0-1,0.4-1,1v21.7H1
	c-0.6,0-1,0.4-1,1V35c0,0.6,0.4,1,1,1h46c0.6,0,1-0.4,1-1V23.7C48,23.1,47.5,22.7,47,22.7z M38.8,2h1.8v20.7h-1.8V2z M7.1,2H9v20.7
	H7.1V2z M46,34H2v-9.3h4.1H10h27.8h3.8H46V34z"/>
<g>
	<path class="st0" d="M36.3,30.3h-1.5c-0.6,0-1-0.4-1-1s0.4-1,1-1h1.5c0.6,0,1,0.4,1,1S36.8,30.3,36.3,30.3z"/>
</g>
<g>
	<path class="st0" d="M30.5,30.3H29c-0.6,0-1-0.4-1-1s0.4-1,1-1h1.5c0.6,0,1,0.4,1,1S31.1,30.3,30.5,30.3z"/>
</g>
<g>
	<path class="st0" d="M7.5,30.3H6c-0.6,0-1-0.4-1-1s0.4-1,1-1h1.5c0.6,0,1,0.4,1,1S8.1,30.3,7.5,30.3z"/>
</g>
<g>
	<path class="st0" d="M42,30.3h-1.5c-0.6,0-1-0.4-1-1s0.4-1,1-1H42c0.6,0,1,0.4,1,1S42.6,30.3,42,30.3z"/>
</g>
</svg>
