<svg id="Слой_1" data-name="Слой 1" xmlns="http://www.w3.org/2000/svg" viewBox="0 0 49 60"><defs><style>.cls-1{fill:#5d4fc4;}.cls-2{fill:#ff6900;}</style></defs><title>warantly</title><path class="cls-1" d="M24.5,4.69a1.17,1.17,0,1,0,1.17,1.17A1.17,1.17,0,0,0,24.5,4.69Z"/><path class="cls-1" d="M47.83,7A5.85,5.85,0,0,1,42,1.17,1.17,1.17,0,0,0,40.83,0H8.17A1.17,1.17,0,0,0,7,1.17,5.85,5.85,0,0,1,1.17,7,1.17,1.17,0,0,0,0,8.2V27.33A34,34,0,0,0,24.16,60a1.16,1.16,0,0,0,.67,0A34,34,0,0,0,49,27.33V8.2A1.17,1.17,0,0,0,47.83,7Zm-1.17,20.3A31.5,31.5,0,0,1,24.5,57.6,31.67,31.67,0,0,1,2.33,27.33v-18A8.2,8.2,0,0,0,9.25,2.34h30.5a8.2,8.2,0,0,0,6.92,6.95Z"/><path class="cls-1" d="M43.63,10.84a10.53,10.53,0,0,1-5.43-5.45,1.17,1.17,0,0,0-1.07-.7h-8a1.17,1.17,0,0,0,0,2.34H36.4A12.85,12.85,0,0,0,42,12.65V27.33A26.69,26.69,0,0,1,24.5,52.65,26.69,26.69,0,0,1,7,27.33V12.65A12.85,12.85,0,0,0,12.6,7h7.24a1.17,1.17,0,0,0,0-2.34h-8a1.17,1.17,0,0,0-1.07.7,10.53,10.53,0,0,1-5.43,5.45,1.17,1.17,0,0,0-.7,1.07V27.33A29.16,29.16,0,0,0,24.11,55a1.16,1.16,0,0,0,.78,0A29.17,29.17,0,0,0,44.33,27.33V11.91A1.17,1.17,0,0,0,43.63,10.84Z"/><path class="cls-2" d="M24.5,17.11A10.55,10.55,0,1,0,35,27.66,10.54,10.54,0,0,0,24.5,17.11Zm0,18.75a8.2,8.2,0,1,1,8.17-8.2A8.19,8.19,0,0,1,24.5,35.86Z"/><path class="cls-2" d="M30,24.48a1.16,1.16,0,0,0-1.65,0l-5,5L21.82,28a1.16,1.16,0,0,0-1.65,0,1.18,1.18,0,0,0,0,1.66L22.51,32a1.16,1.16,0,0,0,1.65,0L30,26.14A1.18,1.18,0,0,0,30,24.48Z"/></svg>