<?xml version="1.0" encoding="utf-8"?>
<!-- Generator: Adobe Illustrator 21.1.0, SVG Export Plug-In . SVG Version: 6.00 Build 0)  -->
<svg version="1.1" id="Слой_1" xmlns="http://www.w3.org/2000/svg" xmlns:xlink="http://www.w3.org/1999/xlink" x="0px" y="0px"
	 viewBox="0 0 47 36" style="enable-background:new 0 0 47 36;" xml:space="preserve">
<style type="text/css">
	.st0{fill:#262626;}
</style>
<title>audio</title>
<g>
	<path class="st0" d="M27.5,36H1c-0.6,0-1-0.4-1-1c0,0,0,0,0,0s0,0,0,0V1c0-0.6,0.4-1,1-1h26.5c0.6,0,1,0.4,1,1v34
		C28.5,35.6,28.1,36,27.5,36z M2,34h24.5V2H2V34z"/>
</g>
<g>
	<path class="st0" d="M14.3,27c-5,0-9-4.1-9-9s4.1-9,9-9s9.1,4.1,9.1,9S19.3,27,14.3,27z M14.3,11c-3.9,0-7,3.2-7,7c0,3.9,3.2,7,7,7
		c3.9,0,7.1-3.2,7.1-7C21.3,14.1,18.1,11,14.3,11z"/>
</g>
<g>
	<path class="st0" d="M14.3,20.4c-1.3,0-2.4-1.1-2.4-2.4s1.1-2.4,2.4-2.4s2.4,1.1,2.4,2.4S15.6,20.4,14.3,20.4z M14.3,17.6
		c-0.2,0-0.4,0.2-0.4,0.4s0.2,0.4,0.4,0.4c0.2,0,0.4-0.2,0.4-0.4S14.5,17.6,14.3,17.6z"/>
</g>
<path class="st0" d="M40.3,4.5h-2.8c-0.6,0-1,0.4-1,1v3c-0.4-0.2-0.8-0.3-1.3-0.3c-1.8,0-3.3,1.5-3.3,3.2s1.5,3.2,3.3,3.2
	s3.3-1.5,3.3-3.2v-5h1.8c0.6,0,1-0.4,1-1S40.9,4.5,40.3,4.5z M35.2,12.8c-0.7,0-1.3-0.6-1.3-1.2c0-0.7,0.6-1.2,1.3-1.2
	s1.3,0.6,1.3,1.2C36.5,12.2,35.9,12.8,35.2,12.8z"/>
<path class="st0" d="M46,13.9h-2.8c-0.6,0-1,0.4-1,1v3c-0.4-0.2-0.8-0.2-1.2-0.2c-1.8,0-3.3,1.5-3.3,3.2c0,1.8,1.5,3.2,3.3,3.2
	s3.3-1.5,3.3-3.2c0,0,0-0.1,0-0.1v-4.9H46c0.6,0,1-0.4,1-1S46.6,13.9,46,13.9z M40.9,22.2c-0.7,0-1.3-0.6-1.3-1.2s0.6-1.2,1.3-1.2
	c0.7,0,1.2,0.5,1.2,1.2v0c0,0,0,0,0,0C42.1,21.6,41.6,22.2,40.9,22.2z"/>
</svg>
