<?xml version="1.0" encoding="utf-8"?>
<!-- Generator: Adobe Illustrator 21.1.0, SVG Export Plug-In . SVG Version: 6.00 Build 0)  -->
<svg version="1.1" id="Слой_1" xmlns="http://www.w3.org/2000/svg" xmlns:xlink="http://www.w3.org/1999/xlink" x="0px" y="0px"
	 viewBox="0 0 45 36" style="enable-background:new 0 0 45 36;" xml:space="preserve">
<style type="text/css">
	.st0{fill:#262626;}
</style>
<title>computer</title>
<g>
	<path class="st0" d="M12.9,36H1c-0.6,0-1-0.4-1-1V13.8c0-0.6,0.4-1,1-1h11.9c0.6,0,1,0.4,1,1V35C13.9,35.6,13.5,36,12.9,36z M2,34
		h9.9V14.8H2V34z"/>
</g>
<path class="st0" d="M44,0H4.1c-0.6,0-1,0.4-1,1v8.3c0,0.6,0.4,1,1,1s1-0.4,1-1V2H43v17.6H18.3c-0.6,0-1,0.4-1,1s0.4,1,1,1H43v4.1
	H18.3c-0.6,0-1,0.4-1,1s0.4,1,1,1H23V34h-4.8c-0.6,0-1,0.4-1,1s0.4,1,1,1h11.5c0.6,0,1-0.4,1-1s-0.4-1-1-1H25v-6.3h19
	c0.6,0,1-0.4,1-1V1C45,0.4,44.6,0,44,0z"/>
<g>
	<path class="st0" d="M7.7,21.6H6.2c-0.6,0-1-0.4-1-1s0.4-1,1-1h1.5c0.6,0,1,0.4,1,1S8.3,21.6,7.7,21.6z"/>
</g>
<g>
	<path class="st0" d="M7.7,27.7H6.2c-0.6,0-1-0.4-1-1s0.4-1,1-1h1.5c0.6,0,1,0.4,1,1S8.3,27.7,7.7,27.7z"/>
</g>
</svg>
