<svg id="Слой_1" data-name="Слой 1" xmlns="http://www.w3.org/2000/svg" viewBox="0 0 79 50"><defs><style>.cls-1{fill:#5d4fc4;}.cls-2{fill:#ff6900;}</style></defs><title>delivery</title><path class="cls-1" d="M73.47,21.2l-2-8.19a1.24,1.24,0,0,0,1-1.21V10.48a5.2,5.2,0,0,0-5.2-5.2H57.89V2.56A2.56,2.56,0,0,0,55.33,0H7.83A2.56,2.56,0,0,0,5.28,2.56V25a1.24,1.24,0,1,0,2.47,0V2.56a.08.08,0,0,1,.08-.08h47.5a.08.08,0,0,1,.08.08V25a1.24,1.24,0,1,0,2.47,0V23.6h14.6a4,4,0,0,1,3.84,2.81H72.49a1.24,1.24,0,0,0-1.24,1.24v2.64a3.88,3.88,0,0,0,3.88,3.88h1.4V39.6H73.29a7.83,7.83,0,0,0-14.81,0h-.6V24.11a1.24,1.24,0,1,0-2.47,0V39.6H29.75a7.83,7.83,0,0,0-14.81,0H7.83a.08.08,0,0,1-.08-.08V36.8h5.36a1.24,1.24,0,0,0,0-2.48H1.24a1.24,1.24,0,0,0,0,2.48h4v2.72a2.56,2.56,0,0,0,2.56,2.56h6.68s0,.05,0,.08a7.83,7.83,0,1,0,15.67,0s0-.05,0-.08H58.06s0,.05,0,.08a7.83,7.83,0,1,0,15.67,0s0-.05,0-.08h4A1.24,1.24,0,0,0,79,40.84V27.64A6.53,6.53,0,0,0,73.47,21.2ZM57.89,7.76h9.32a2.73,2.73,0,0,1,2.72,2.72v.08h-12Zm0,13.37V13h11l2,8.09h-13ZM22.35,47.53a5.36,5.36,0,1,1,5.36-5.36A5.37,5.37,0,0,1,22.35,47.53Zm43.54,0a5.36,5.36,0,1,1,5.36-5.36A5.37,5.37,0,0,1,65.89,47.53ZM76.53,31.68h-1.4a1.4,1.4,0,0,1-1.4-1.4v-1.4h2.8v2.81Z"/><path class="cls-1" d="M22.35,39.6a2.56,2.56,0,1,0,2.56,2.56A2.56,2.56,0,0,0,22.35,39.6Z"/><path class="cls-1" d="M65.89,39.6a2.56,2.56,0,1,0,2.56,2.56A2.56,2.56,0,0,0,65.89,39.6Z"/><path class="cls-1" d="M51.37,34.32H32.9a1.24,1.24,0,0,0,0,2.48H51.37a1.24,1.24,0,0,0,0-2.48Z"/><path class="cls-1" d="M19.71,29H3.88a1.24,1.24,0,0,0,0,2.48H19.71a1.24,1.24,0,0,0,0-2.48Z"/><path class="cls-2" d="M31.58,6.6A11.8,11.8,0,1,0,43.38,18.4,11.81,11.81,0,0,0,31.58,6.6Zm0,21.12A9.32,9.32,0,1,1,40.9,18.4,9.33,9.33,0,0,1,31.58,27.72Z"/><path class="cls-2" d="M36.42,21.48l-3.6-3.6V13.12a1.24,1.24,0,1,0-2.47,0V18.4a1.24,1.24,0,0,0,.36.88l4,4a1.24,1.24,0,0,0,1.75-1.75Z"/></svg>