<svg xmlns="http://www.w3.org/2000/svg" width="20" height="18" viewBox="0 0 20 18"><defs><clipPath id="lbiia"><path fill="#fff" d="M6 10a4 4 0 1 1 0 8 4 4 0 0 1 0-8z"/></clipPath><clipPath id="lbiib"><path fill="#fff" d="M14 0a4 4 0 1 1 0 8 4 4 0 0 1 0-8z"/></clipPath></defs><g><g><path fill="gray" d="M0 3h20v2H0zm0 10h20v2H0z"/></g><g><path fill="#fff" d="M6 10a4 4 0 1 1 0 8 4 4 0 0 1 0-8z"/><path fill="none" stroke="gray" stroke-miterlimit="50" stroke-width="4" d="M6 10a4 4 0 1 1 0 8 4 4 0 0 1 0-8z" clip-path="url(&quot;#lbiia&quot;)"/></g><g><path fill="#fff" d="M14 0a4 4 0 1 1 0 8 4 4 0 0 1 0-8z"/><path fill="none" stroke="gray" stroke-miterlimit="50" stroke-width="4" d="M14 0a4 4 0 1 1 0 8 4 4 0 0 1 0-8z" clip-path="url(&quot;#lbiib&quot;)"/></g></g></svg>