<svg xmlns="http://www.w3.org/2000/svg" width="142" height="48" viewBox="0 0 142 48"><defs><clipPath id="mvkoa"><path fill="#fff" d="M24 5c10.493 0 19 8.506 19 19 0 10.493-8.507 19-19 19S5 34.493 5 24C5 13.506 13.507 5 24 5z"/></clipPath></defs><g><g><g><path fill="#4d4d4d" d="M3 0h42a3 3 0 0 1 3 3v42a3 3 0 0 1-3 3H3a3 3 0 0 1-3-3V3a3 3 0 0 1 3-3z"/></g><g><path fill="none" stroke="#333" stroke-miterlimit="50" stroke-width="4" d="M24 5c10.493 0 19 8.506 19 19 0 10.493-8.507 19-19 19S5 34.493 5 24C5 13.506 13.507 5 24 5z" clip-path="url(&quot;#mvkoa&quot;)"/></g><g><g><text dominant-baseline="text-before-edge" style="line-height:190px" fill="#333" font-family="'MuseoSansCyrl-700','MuseoSansCyrl-700'" font-size="24" font-style="none" font-weight="400" transform="translate(18 15)"><tspan style="font-kerning:normal">R</tspan></text></g></g><g><g><text dominant-baseline="text-before-edge" style="text-transform:uppercase;line-height:190px" fill="#4a4a4a" font-family="'MuseoSansCyrl-700','MuseoSansCyrl-700'" font-size="24" font-style="none" font-weight="400" transform="translate(68 14)"><tspan style="font-kerning:normal" letter-spacing=".48">seven</tspan></text></g></g></g></g></svg>