<svg id="Слой_1" data-name="Слой 1" xmlns="http://www.w3.org/2000/svg" viewBox="0 0 72 60"><defs><style>.cls-1{fill:#ff6900;}.cls-2{fill:#5d4fc4;}.cls-3{fill:none;}</style></defs><title>Монтажная область 1</title><path class="cls-1" d="M44.65,27.26a2.15,2.15,0,0,1-2.31-.49,1.05,1.05,0,0,0-1.47.17.85.85,0,0,0,0,1.36,4,4,0,0,0,4.45.8,4,4,0,0,0,2.63-5.28c-1-3-3.73-3.28-6.27-1.81-.3.18-.52.18-.6-.24l-.29-1.44c0-.26,0-.35.19-.43l3.36-1.18c.55-.19.5-.74.33-1.22s-.47-.91-1-.71l-4.38,1.54c-.94.33-1,.77-.77,1.9l.71,3.34c.23,1.17,1.42,1.15,2.18.54,1.47-1.21,3.72-1.41,4.41.57a1.9,1.9,0,0,1-1.11,2.58Z"/><path class="cls-1" d="M55,25.62c3.25-1.14,3.53-4.59,2.55-7.35S54.16,13,50.92,14.15s-3.53,4.59-2.55,7.35,3.39,5.26,6.64,4.12ZM51.58,16c2-.69,3.24,1.6,3.75,3.05s1,4-1,4.72-3.24-1.6-3.75-3.05-1-4,1-4.72Z"/><path class="cls-2" d="M21.91,51.33c-.39-.3-.78-.62-1.16-.93l-1.31-1.1a1.35,1.35,0,0,0-1.77,0A37.27,37.27,0,0,1,3,57.57l-.89.26v-36A.83.83,0,0,1,2.94,21h4a1,1,0,1,0,0-2.09h-4A2.93,2.93,0,0,0,0,21.83V58.11a1.87,1.87,0,0,0,.76,1.51A1.89,1.89,0,0,0,1.89,60a1.93,1.93,0,0,0,.54-.08l1.16-.34a39.42,39.42,0,0,0,15-8.25l.79.67c.4.34.81.67,1.23,1a1.06,1.06,0,0,0,1.48-.18,1,1,0,0,0-.18-1.47Z"/><path class="cls-2" d="M5.24,37.76c0,.46.14.94.65.94h3.5c.53,0,.67-.48.67-.94s-.15-1-.67-1H5.89C5.37,36.8,5.24,37.28,5.24,37.76Z"/><path class="cls-2" d="M14.27,36.62a21.73,21.73,0,0,0-3.34,2.94,2,2,0,0,0-.57,1.37c0,1,.26,1.3,1.15,1.3h6.39c.57,0,.72-.51.72-1s-.15-1-.72-1H13.34c-.14,0-.14-.12-.07-.19a36.1,36.1,0,0,1,2.88-2.34c1.33-1.08,2.43-2.21,2.43-4,0-2.43-1.91-3.54-4.22-3.54a3.57,3.57,0,0,0-3.86,3.26c0,.6.29.84.86.89a1,1,0,0,0,1.24-.72,1.71,1.71,0,0,1,1.76-1.44,1.69,1.69,0,0,1,1.91,1.79c0,1-1,2-2,2.72Z"/><path class="cls-2" d="M28,38.31c0-3.18-2.41-4.32-5.3-3.78-.34.07-.55,0-.48-.43l.21-1.45c.05-.26.07-.34.33-.34h3.56c.59,0,.72-.53.72-1s-.14-1-.72-1H21.71c-1,0-1.21.39-1.36,1.54l-.45,3.38c-.17,1.18.95,1.56,1.88,1.23,1.79-.65,4-.1,4,2a1.91,1.91,0,0,1-1.91,2.07,2.14,2.14,0,0,1-2-1.23,1.05,1.05,0,0,0-1.45-.32.85.85,0,0,0-.5,1.26,4,4,0,0,0,3.93,2.22A4,4,0,0,0,28,38.31Z"/><path class="cls-3" d="M34.2,18.91a2.93,2.93,0,0,1,2.94,2.92V18.91H34.2Z"/><path class="cls-2" d="M37.14,42.92V21.83a2.93,2.93,0,0,0-2.94-2.92H11.88a1,1,0,1,0,0,2.09H34.2a.83.83,0,0,1,.83.82v36l-2-.62a36.27,36.27,0,0,1-7.36-3.28,1.06,1.06,0,0,0-1.45.37,1,1,0,0,0,.37,1.43,38.37,38.37,0,0,0,7.8,3.47l2.23.71a1.92,1.92,0,0,0,1.7-.27,1.89,1.89,0,0,0,.78-1.52V42.92Z"/><path class="cls-1" d="M26.69,13.54a.82.82,0,0,1,.51-1.05L56.67,2.14a.83.83,0,0,1,1.06.5L65,23.17a1.05,1.05,0,0,0,2-.7L59.71,1.95A2.91,2.91,0,0,0,58.21.29,2.94,2.94,0,0,0,56,.17L26.49,10.51A2.91,2.91,0,0,0,24.82,12a2.88,2.88,0,0,0-.12,2.23l1.66,4.67H28.6Z"/><path class="cls-1" d="M38.43,27.56c.5-.18.47-.67.32-1.11s-.47-.85-1-.68l-.65.23v2Z"/><path class="cls-1" d="M38.11,49.62a1.93,1.93,0,0,0,.57.09,1.89,1.89,0,0,0,1.11-.36L41,48.52A38.19,38.19,0,0,0,52.14,35.9l1,.36a38.24,38.24,0,0,0,14.71,2.45l2.34-.07a1.91,1.91,0,0,0,1.51-.82,1.88,1.88,0,0,0,.22-1.69h0L68.6,26.89a1.06,1.06,0,0,0-1.35-.64,1,1,0,0,0-.64,1.34l3.2,9-2,.06a36.13,36.13,0,0,1-13.9-2.31l-1.61-.61a1.34,1.34,0,0,0-1.66.63A36.06,36.06,0,0,1,39.72,46.82l-.93.67L37.2,43.05l-.06-.13v6A1.88,1.88,0,0,0,38.11,49.62Z"/></svg>