<svg id="Слой_1" data-name="Слой 1" xmlns="http://www.w3.org/2000/svg" viewBox="0 0 72 60"><defs><style>.cls-1{fill:#ff6900;}.cls-2{fill:#5d4fc4;}</style></defs><title>service</title><path class="cls-1" d="M67.42,0H60.58a1.08,1.08,0,0,0,0,2.15h6.84a2.43,2.43,0,0,1,2.43,2.43V21a2.43,2.43,0,0,1-2.43,2.43H42.23a1.08,1.08,0,0,0-.76.32L35.26,30V24.53a1.08,1.08,0,0,0-1.08-1.08H32.13A2.43,2.43,0,0,1,29.71,21V4.58a2.43,2.43,0,0,1,2.43-2.43H61.25a1.08,1.08,0,1,0,0-2.15H32.13a4.59,4.59,0,0,0-4.58,4.58V21a4.59,4.59,0,0,0,4.58,4.58h1v7a1.08,1.08,0,0,0,1.84.76l7.73-7.73H67.42A4.59,4.59,0,0,0,72,21V4.58A4.59,4.59,0,0,0,67.42,0Z"/><path class="cls-1" d="M38.25,13.82c1.28-.87,2.87-2,2.87-3.82a2.7,2.7,0,0,0-1-2.18,3.67,3.67,0,0,0-2.26-.75,2.94,2.94,0,0,0-3.2,2.72c0,.78.33,1.16,1,1.16s1.17-.42,1.17-.82a1,1,0,0,1,2.09-.06c0,.84-1,1.56-2,2.33s-2.4,1.76-2.4,2.93v1.36c0,.42.58.69,1,.69h5c.36,0,.68-.46.68-1s-.32-1-.68-1H36.77v-.11C36.77,14.83,37.46,14.36,38.25,13.82Z"/><path class="cls-1" d="M47.08,17.38c.77,0,1.11-.36,1.11-.69V15.22h.59c.35,0,.69-.51.69-1,0-.71-.36-1-.69-1h-.59v-1c0-.31-.29-.68-1.11-.68s-1.11.37-1.11.68v1H44.8l2.48-5a.71.71,0,0,0,.07-.27.77.77,0,0,0-.41-.62,1.43,1.43,0,0,0-.7-.23,1,1,0,0,0-.93.57L42.05,14a.91.91,0,0,0-.11.43.72.72,0,0,0,.75.78H46v1.47C46,17,46.31,17.38,47.08,17.38Z"/><path class="cls-1" d="M55.48,6.85,50.55,17a.64.64,0,0,0-.07.28.8.8,0,0,0,.81.76.72.72,0,0,0,.65-.36l5-10.14a.63.63,0,0,0,.06-.28.82.82,0,0,0-.85-.76A.64.64,0,0,0,55.48,6.85Z"/><path class="cls-1" d="M59.25,10.63c.61,0,1.13-.32,1.13-.69V9h2.48v1l-3.46,6a.74.74,0,0,0-.1.37c0,.66.74,1.13,1.41,1.13a.65.65,0,0,0,.63-.31l3.29-6.3a3.63,3.63,0,0,0,.45-1.34V7.76c0-.3-.47-.69-1-.69h-5c-.49,0-1,.34-1,.69V9.94C58.15,10.32,58.65,10.63,59.25,10.63Z"/><path class="cls-2" d="M44.55,37.4a3,3,0,0,0-4.2,0L33.77,44a38,38,0,0,1-7.45-4.83,1.08,1.08,0,0,0-1.39,1.65,42,42,0,0,0,8.55,5.46,1.08,1.08,0,0,0,1.26-.2l3.54-3.54L50,54.21c-3.77,3.24-9.12,4.37-15.18,3.17C28,56,20.73,51.84,14.45,45.55S4,32,2.62,25.23C1.43,19.16,2.56,13.82,5.79,10L17.47,21.73l-3.54,3.54a1.08,1.08,0,0,0-.19,1.26,40,40,0,0,0,8.21,11.53,1.08,1.08,0,1,0,1.52-1.52A36.61,36.61,0,0,1,16,26.23l6.59-6.59a3,3,0,0,0,0-4.2L12,4.89a3,3,0,0,0-4.2,0L5,7.73C.68,12-.92,18.41.51,25.64S6.34,40.49,12.93,47.08s14.2,11,21.43,12.42a25.89,25.89,0,0,0,5,.51,17.78,17.78,0,0,0,12.91-5l2.84-2.84a3,3,0,0,0,0-4.2ZM9.36,6.41a.81.81,0,0,1,1.15,0L21.08,17a.81.81,0,0,1,0,1.15L19,20.2,7.29,8.49ZM53.59,50.64l-2.08,2.08L39.8,41l2.08-2.08a.81.81,0,0,1,1.15,0L53.59,49.49A.81.81,0,0,1,53.59,50.64Z"/></svg>