<svg id="Слой_1" data-name="Слой 1" xmlns="http://www.w3.org/2000/svg" viewBox="0 0 34 36"><defs><style>.cls-1{fill:none;stroke:#624ec9;stroke-linecap:round;stroke-linejoin:round;stroke-width:2px;}.cls-2{fill:#ff6900;}</style></defs><title>configurator</title><line class="cls-1" x1="21.09" y1="18" x2="1" y2="18"/><line class="cls-1" x1="33" y1="18" x2="29.59" y2="18"/><line class="cls-1" x1="13.09" y1="31" x2="1" y2="31"/><line class="cls-1" x1="33" y1="31" x2="21.17" y2="31"/><line class="cls-1" x1="13.34" y1="5" x2="33" y2="5"/><line class="cls-1" x1="1" y1="5" x2="4.67" y2="5"/><path class="cls-2" d="M9.13,2a3,3,0,1,1-3,3,3,3,0,0,1,3-3m0-2a5,5,0,1,0,5,5,5,5,0,0,0-5-5Z"/><path class="cls-2" d="M17.13,28a3,3,0,1,1-3,3,3,3,0,0,1,3-3m0-2a5,5,0,1,0,5,5,5,5,0,0,0-5-5Z"/><path class="cls-2" d="M25.13,15a3,3,0,1,1-3,3,3,3,0,0,1,3-3m0-2a5,5,0,1,0,5,5,5,5,0,0,0-5-5Z"/></svg>