<svg id="Слой_1" data-name="Слой 1" xmlns="http://www.w3.org/2000/svg" viewBox="0 0 48 48"><defs><style>.cls-1{fill:#ff6900;}.cls-2{fill:#624ec9;}</style></defs><title>delivery_samovivoz</title><g id="Loader"><path class="cls-1" d="M19.69,38.15a3.25,3.25,0,0,0-2,1.54,3.36,3.36,0,0,0,1.19,4.53,3.16,3.16,0,0,0,2.46.33,3.33,3.33,0,0,0,2.29-4.06,3.23,3.23,0,0,0-4-2.35ZM19,41.79a1.68,1.68,0,0,1,.16-1.26,1.61,1.61,0,0,1,3,.41,1.67,1.67,0,0,1-1.16,2,1.62,1.62,0,0,1-2-1.18Z"/><path class="cls-2" d="M.33,3A2.54,2.54,0,0,0,.08,4.9a2.43,2.43,0,0,0,3,1.76l5.48-1.5,8.09,30.91A6.68,6.68,0,0,0,19.74,48,6.51,6.51,0,0,0,27,42.17L46.2,36.9a2.5,2.5,0,0,0,1.72-3,2.43,2.43,0,0,0-3-1.76l-.78.21L39.33,13.88h0a.81.81,0,0,0-1-.59l-3.91,1.07-3.15-12a.81.81,0,0,0-1-.59L13.86,6.28,13,3.07a4,4,0,0,0-5-2.93L1.8,1.86A2.42,2.42,0,0,0,.32,3Zm29,14.46,1.5,5.71-1.33-.46a.78.78,0,0,0-.26,0,.8.8,0,0,0-.61.28L27.74,24l-1.5-5.71ZM23.85,9.19,23.56,9a.79.79,0,0,0-.61-.08.81.81,0,0,0-.49.39l-.17.3-1-3.67,1.57-.43Zm9,5.61L17.21,19.09,14.27,7.88l5.48-1.5L21.22,12a.82.82,0,0,0,.68.61H22a.81.81,0,0,0,.7-.41l.74-1.31,1.28.76a.79.79,0,0,0,.62.08.83.83,0,0,0,.57-1L24.45,5.09l5.48-1.5Zm9.73,17.94L25.7,37.37a6.48,6.48,0,0,0-4.37-2.59L17.63,20.69l7-1.93L26.56,26a.83.83,0,0,0,.25.41.8.8,0,0,0,1.14-.08l1.57-1.83,2.26.78a.79.79,0,0,0,.47,0,.83.83,0,0,0,.57-1L30.93,17l7-1.93Zm3.76,1.54a.83.83,0,0,1-.57,1L26.94,40.46a6.88,6.88,0,0,0-.15-.82,6.71,6.71,0,0,0-.26-.79l18.84-5.17h0a.81.81,0,0,1,1,.59ZM19.27,36.55a4.85,4.85,0,0,1,5.95,3.52,5,5,0,0,1-3.43,6.09,4.85,4.85,0,0,1-6-3.51A5,5,0,0,1,19.27,36.55ZM1.65,4.47a.83.83,0,0,1,.57-1L8.48,1.74h0a2.43,2.43,0,0,1,3,1.76l8.19,31.29a5.7,5.7,0,0,0-1.57.43l-8-30.49a1.62,1.62,0,0,0-2-1.17L2.64,5.06h0a.81.81,0,0,1-1-.59Z"/></g></svg>