<svg id="Слой_1" data-name="Слой 1" xmlns="http://www.w3.org/2000/svg" viewBox="0 0 54 48"><defs><style>.cls-1{fill:#624ec9;}.cls-2{fill:#ff6900;}</style></defs><title>delivery_kurier</title><path class="cls-1" d="M53.88,34.28A3.59,3.59,0,0,0,51,31.65V10.87h1.79a.9.9,0,0,0,.89-.91V.91A.9.9,0,0,0,52.75,0H13.41a.9.9,0,0,0-.89.91V10a.9.9,0,0,0,.89.91H15.2V29H14.3A11.41,11.41,0,0,0,8,30.84V26.26a.9.9,0,0,0-.89-.91H.89a.9.9,0,0,0-.89.91V47.09A.9.9,0,0,0,.89,48H7.15A.9.9,0,0,0,8,47.09V42.52a11.42,11.42,0,0,0,6.26,1.86H29a11.63,11.63,0,0,0,3-.4l19.36-5.25A3.64,3.64,0,0,0,53.88,34.28ZM14.3,1.81H51.85V9.06H14.3ZM17,10.87H49.17V31.81L38.8,34.63a3.61,3.61,0,0,0-2.36-2.1l-12-3.27A8,8,0,0,0,22.31,29H17ZM6.26,46.19H1.79v-19H6.26ZM50.89,37,31.54,42.23a9.83,9.83,0,0,1-2.55.34H14.3a9.68,9.68,0,0,1-5.9-2L8,40.3V33.06l.36-.27a9.68,9.68,0,0,1,5.9-2h8a6.24,6.24,0,0,1,1.62.21l12,3.27a1.82,1.82,0,0,1,1.31,1.56l0,.11a.9.9,0,0,0,0,.12,1.56,1.56,0,0,1-.06.44,1.79,1.79,0,0,1-1.72,1.34,1.74,1.74,0,0,1-.47-.06l-7.6-2.06a.89.89,0,0,0-.88.22.91.91,0,0,0-.24.89.9.9,0,0,0,.65.64l7.6,2.07A3.57,3.57,0,0,0,39,37a3.28,3.28,0,0,0,.1-.55l10.9-3,.24-.05a1.8,1.8,0,0,1,2,1.8A1.81,1.81,0,0,1,50.89,37Z"/><path class="cls-2" d="M28.61,14.49h8.94a.91.91,0,0,0,0-1.81H28.61a.91.91,0,0,0,0,1.81Z"/></svg>