<svg id="Слой_1" data-name="Слой 1" xmlns="http://www.w3.org/2000/svg" viewBox="0 0 64 40"><defs><style>.cls-1{fill:#624ec9;}.cls-2{fill:#ff6900;}</style></defs><title>Монтажная область 1</title><path class="cls-1" d="M59.52,17l-1.66-6.55a1,1,0,0,0,.79-1V8.38a4.19,4.19,0,0,0-4.21-4.16H46.9V2a2.06,2.06,0,0,0-2.07-2H6.35A2.06,2.06,0,0,0,4.28,2V20a1,1,0,0,0,2,0V2A.07.07,0,0,1,6.35,2H44.83a.07.07,0,0,1,.07.07V20a1,1,0,0,0,2,0V18.88H58.72a3.28,3.28,0,0,1,3.11,2.24H58.72a1,1,0,0,0-1,1v2.11a3.12,3.12,0,0,0,3.14,3.1H62v4.36H59.38a6.37,6.37,0,0,0-12,0H46.9V24.22a1,1,0,0,0-2,0v7.46H24.1a6.37,6.37,0,0,0-12,0H6.35a.07.07,0,0,1-.07-.07V29.44h4.34a1,1,0,1,0,0-2H1a1,1,0,1,0,0,2H4.28v2.18a2.06,2.06,0,0,0,2.07,2h5.41s0,0,0,.07a6.35,6.35,0,0,0,12.69,0s0,0,0-.07H47s0,0,0,.07a6.35,6.35,0,0,0,12.69,0s0,0,0-.07H63a1,1,0,0,0,1-1V22.11A5.24,5.24,0,0,0,59.52,17ZM46.9,6.2h7.55a2.19,2.19,0,0,1,2.2,2.18v.07H46.9Zm0,10.69V10.43h8.9l1.64,6.47H46.9ZM18.1,38a4.29,4.29,0,1,1,4.34-4.29A4.32,4.32,0,0,1,18.1,38Zm35.27,0a4.29,4.29,0,1,1,4.34-4.29A4.32,4.32,0,0,1,53.38,38ZM62,25.35H60.86a1.13,1.13,0,0,1-1.14-1.12V23.1H62v2.24Z"/><path class="cls-2" d="M18.1,31.68a2,2,0,1,0,2.07,2A2.06,2.06,0,0,0,18.1,31.68Z"/><path class="cls-2" d="M53.38,31.68a2,2,0,1,0,2.07,2A2.06,2.06,0,0,0,53.38,31.68Z"/><path class="cls-2" d="M41.62,27.46h-15a1,1,0,1,0,0,2h15a1,1,0,1,0,0-2Z"/><path class="cls-2" d="M16,23.23H3.14a1,1,0,1,0,0,2H16a1,1,0,1,0,0-2Z"/></svg>