<svg id="Слой_1" data-name="Слой 1" xmlns="http://www.w3.org/2000/svg" viewBox="0 0 16 16"><defs><style>.cls-1{fill:#262626;}</style></defs><title>help</title><path class="cls-1" d="M8,1A6.15,6.15,0,1,1,6.47,13.09L6.12,13l-.33.15-2.56,1.2.22-2.62,0-.4L3.23,11A6.08,6.08,0,0,1,1.85,7.15,6.15,6.15,0,0,1,8,1M8,0A7.14,7.14,0,0,0,2.45,11.65L2.09,16l4.13-1.94A7.14,7.14,0,1,0,8,0Z"/><path class="cls-1" d="M8,6.15a1,1,0,1,0,1,1,1,1,0,0,0-1-1Z"/><path class="cls-1" d="M4.32,6.15a1,1,0,1,0,1,1,1,1,0,0,0-1-1Z"/><path class="cls-1" d="M11.68,6.15a1,1,0,1,0,1,1,1,1,0,0,0-1-1Z"/></svg>