<svg id="Слой_1" data-name="Слой 1" xmlns="http://www.w3.org/2000/svg" viewBox="0 0 16 16"><defs><style>.cls-1{fill:#262626;}</style></defs><title>link</title><path class="cls-1" d="M3.5,16A3.5,3.5,0,0,1,1,10L3.14,7.91l.71.71L1.73,10.74a2.5,2.5,0,0,0,0,3.53,2.56,2.56,0,0,0,3.53,0L9.5,10a2.5,2.5,0,0,0,0-3.53.5.5,0,0,1,.71-.71,3.5,3.5,0,0,1,0,4.95L6,15A3.47,3.47,0,0,1,3.5,16Z"/><path class="cls-1" d="M6.15,10.35a.5.5,0,0,1-.35-.15,3.5,3.5,0,0,1,0-4.95L10,1A3.58,3.58,0,0,1,15,1,3.5,3.5,0,0,1,15,6L12.86,8.09l-.71-.71,2.12-2.12a2.5,2.5,0,0,0,0-3.53,2.56,2.56,0,0,0-3.53,0L6.5,6a2.5,2.5,0,0,0,0,3.53.5.5,0,0,1-.35.85Z"/></svg>