<svg id="Слой_1" data-name="Слой 1" xmlns="http://www.w3.org/2000/svg" viewBox="0 0 60 60"><defs><style>.cls-1{fill:none;}.cls-2{fill:#694dcd;}.cls-3{fill:#ff6900;}</style></defs><title>nalichnaya_oplata</title><path class="cls-1" d="M39,17a1,1,0,0,1,1-1,1,1,0,0,0,1-1,1,1,0,0,1,1-1h7a1,1,0,0,1,1,1,1,1,0,0,0,1,1,1,1,0,0,1,1,1v9h2V12H37V26h2Z"/><path class="cls-1" d="M48.17,16H42.83A3,3,0,0,1,41,17.83V26h9V17.83A3,3,0,0,1,48.17,16Z"/><path class="cls-1" d="M2,52H20V28H2ZM14,42a4,4,0,1,1-4,4A4,4,0,0,1,14,42Z"/><circle class="cls-1" cx="14" cy="46" r="2"/><path class="cls-1" d="M53.77,40.68a4,4,0,0,1-2.45,5.1A4,4,0,0,1,52,48h2V39.45a3.92,3.92,0,0,1-.68.32A4,4,0,0,1,53.77,40.68Z"/><path class="cls-1" d="M41,10H55a1,1,0,0,1,1,1V26.55a4,4,0,0,1,2,3.33V8H41Z"/><path class="cls-1" d="M54,28H36a1,1,0,0,1-1-1V24.62L28.45,27.9A1,1,0,0,1,28,28H22V48.15L33.08,50H48a2,2,0,0,0,0-4H46a1,1,0,0,1,0-2h4a2,2,0,0,0,0-4H48a1,1,0,0,1,0-2h4a2,2,0,0,0,0-4H50a1,1,0,0,1,0-2h4a2,2,0,0,0,0-4Z"/><path class="cls-1" d="M56,33.45V44h2V30.12A4,4,0,0,1,56,33.45Z"/><path class="cls-2" d="M59,6H40a1,1,0,0,0-1,1v3H36a1,1,0,0,0-1,1V22.38L27.76,26H1a1,1,0,0,0-1,1V53a1,1,0,0,0,1,1H21a1,1,0,0,0,1-1V50.18L32.84,52H48a4,4,0,0,0,3.44-2H55a1,1,0,0,0,1-1V46h3a1,1,0,0,0,1-1V7A1,1,0,0,0,59,6ZM20,52H2V28H20ZM37,12H54V26H52V17a1,1,0,0,0-1-1,1,1,0,0,1-1-1,1,1,0,0,0-1-1H42a1,1,0,0,0-1,1,1,1,0,0,1-1,1,1,1,0,0,0-1,1v9H37Zm13,5.83V26H41V17.83A3,3,0,0,0,42.83,16h5.34A3,3,0,0,0,50,17.83ZM54,48H52a4,4,0,0,0-.68-2.22,4,4,0,0,0,2-6,3.92,3.92,0,0,0,.68-.32Zm0-16H50a1,1,0,0,0,0,2h2a2,2,0,0,1,0,4H48a1,1,0,0,0,0,2h2a2,2,0,0,1,0,4H46a1,1,0,0,0,0,2h2a2,2,0,0,1,0,4H33.08L22,48.15V28h6a1,1,0,0,0,.45-.1L35,24.62V27a1,1,0,0,0,1,1H54a2,2,0,0,1,0,4Zm4,12H56V33.45a4,4,0,0,0,2-3.33Zm0-14.12a4,4,0,0,0-2-3.33V11a1,1,0,0,0-1-1H41V8H58Z"/><path class="cls-3" d="M14,50a4,4,0,1,0-4-4A4,4,0,0,0,14,50Zm0-6a2,2,0,1,1-2,2A2,2,0,0,1,14,44Z"/></svg>