<svg id="Слой_1" data-name="Слой 1" xmlns="http://www.w3.org/2000/svg" viewBox="0 0 60 48"><defs><style>.cls-1{fill:none;}.cls-2{fill:#624ec9;}.cls-3{fill:#ff6900;}</style></defs><title>pay_nal</title><path class="cls-1" d="M39,11a1,1,0,0,1,1-1,1,1,0,0,0,1-1,1,1,0,0,1,1-1h7a1,1,0,0,1,1,1,1,1,0,0,0,1,1,1,1,0,0,1,1,1v9h2V6H37V20h2Z"/><path class="cls-1" d="M48.17,10H42.83A3,3,0,0,1,41,11.83V20h9V11.83A3,3,0,0,1,48.17,10Z"/><path class="cls-1" d="M2,46H20V22H2ZM14,36a4,4,0,1,1-4,4A4,4,0,0,1,14,36Z"/><circle class="cls-1" cx="14" cy="40" r="2"/><path class="cls-1" d="M53.77,34.68a4,4,0,0,1-2.45,5.1A4,4,0,0,1,52,42h2V33.45a3.92,3.92,0,0,1-.68.32A4,4,0,0,1,53.77,34.68Z"/><path class="cls-1" d="M41,4H55a1,1,0,0,1,1,1V20.55a4,4,0,0,1,2,3.33V2H41Z"/><path class="cls-1" d="M54,22H36a1,1,0,0,1-1-1V18.62L28.45,21.9A1,1,0,0,1,28,22H22V42.15L33.08,44H48a2,2,0,0,0,0-4H46a1,1,0,0,1,0-2h4a2,2,0,0,0,0-4H48a1,1,0,0,1,0-2h4a2,2,0,0,0,0-4H50a1,1,0,0,1,0-2h4a2,2,0,0,0,0-4Z"/><path class="cls-1" d="M56,27.45V38h2V24.12A4,4,0,0,1,56,27.45Z"/><path class="cls-2" d="M59,0H40a1,1,0,0,0-1,1V4H36a1,1,0,0,0-1,1V16.38L27.76,20H1a1,1,0,0,0-1,1V47a1,1,0,0,0,1,1H21a1,1,0,0,0,1-1V44.18L32.84,46H48a4,4,0,0,0,3.44-2H55a1,1,0,0,0,1-1V40h3a1,1,0,0,0,1-1V1A1,1,0,0,0,59,0ZM20,46H2V22H20ZM37,6H54V20H52V11a1,1,0,0,0-1-1,1,1,0,0,1-1-1,1,1,0,0,0-1-1H42a1,1,0,0,0-1,1,1,1,0,0,1-1,1,1,1,0,0,0-1,1v9H37Zm13,5.83V20H41V11.83A3,3,0,0,0,42.83,10h5.34A3,3,0,0,0,50,11.83ZM54,42H52a4,4,0,0,0-.68-2.22,4,4,0,0,0,2-6,3.92,3.92,0,0,0,.68-.32Zm0-16H50a1,1,0,0,0,0,2h2a2,2,0,0,1,0,4H48a1,1,0,0,0,0,2h2a2,2,0,0,1,0,4H46a1,1,0,0,0,0,2h2a2,2,0,0,1,0,4H33.08L22,42.15V22h6a1,1,0,0,0,.45-.1L35,18.62V21a1,1,0,0,0,1,1H54a2,2,0,0,1,0,4Zm4,12H56V27.45a4,4,0,0,0,2-3.33Zm0-14.12a4,4,0,0,0-2-3.33V5a1,1,0,0,0-1-1H41V2H58Z"/><path class="cls-3" d="M14,44a4,4,0,1,0-4-4A4,4,0,0,0,14,44Zm0-6a2,2,0,1,1-2,2A2,2,0,0,1,14,38Z"/></svg>