<svg id="Слой_1" data-name="Слой 1" xmlns="http://www.w3.org/2000/svg" viewBox="0 0 60 48"><defs><style>.cls-1{fill:#ff6900;}.cls-2{fill:#624ec9;}</style></defs><title>pay_card</title><path class="cls-1" d="M32,33.31H48a.94.94,0,0,0,1-1V23.51a.94.94,0,0,0-1-1H32a.94.94,0,0,0-1,1v8.82A.94.94,0,0,0,32,33.31Zm1-8.82H47v6.86H33Z"/><path class="cls-1" d="M5,20.57h8a1,1,0,1,0,0-2H5a1,1,0,1,0,0,2Z"/><path class="cls-1" d="M17,20.57h8a1,1,0,1,0,0-2H17a1,1,0,1,0,0,2Z"/><path class="cls-1" d="M5,24.49H18a1,1,0,1,0,0-2H5a1,1,0,1,0,0,2Z"/><path class="cls-1" d="M25,22.53H22a1,1,0,1,0,0,2h3a1,1,0,1,0,0-2Z"/><path class="cls-2" d="M59.08,10.38a3.74,3.74,0,0,0-2.7-1.47L54,8.63V3.92A4,4,0,0,0,50,0H4A4,4,0,0,0,0,3.92V35.27A4,4,0,0,0,2.86,39,3.84,3.84,0,0,0,6.4,42.91L52.58,48H53a4,4,0,0,0,4-3.33l3-31.44A3.76,3.76,0,0,0,59.08,10.38ZM2,6.86H52v5.88H2ZM4,2H50a2,2,0,0,1,2,2v1H2v-1A2,2,0,0,1,4,2ZM2,35.27V14.69H52V35.27a2,2,0,0,1-2,2H4A2,2,0,0,1,2,35.27ZM58,12.83,55,44.28A2,2,0,0,1,52.78,46L6.7,40.95a2,2,0,0,1-1.8-1.76H50a4,4,0,0,0,4-3.92V10.48l2.3.2a1.72,1.72,0,0,1,1.3.69A2,2,0,0,1,58,12.83Z"/></svg>