<svg id="Слой_1" data-name="Слой 1" xmlns="http://www.w3.org/2000/svg" viewBox="0 0 20 20"><title>phone_mobile</title><path d="M16.84,11.92a2.1,2.1,0,0,0-1.52-.69,2.17,2.17,0,0,0-1.54.69l-1.42,1.41L12,13.15c-.16-.08-.32-.16-.45-.24a15.43,15.43,0,0,1-3.7-3.36A9.07,9.07,0,0,1,6.64,7.64c.37-.34.71-.69,1-1l.38-.38a2,2,0,0,0,0-3.1L6.84,1.92l-.42-.43c-.27-.28-.55-.56-.85-.83A2.13,2.13,0,0,0,4.06,0,2.21,2.21,0,0,0,2.53.66h0L1,2.2A3.27,3.27,0,0,0,0,4.29,7.82,7.82,0,0,0,.59,7.61,19.27,19.27,0,0,0,4,13.33a21.16,21.16,0,0,0,7.05,5.5A11,11,0,0,0,15,20h.28a3.4,3.4,0,0,0,2.6-1.11l0,0a10.21,10.21,0,0,1,.79-.81c.19-.18.39-.38.59-.58A2.23,2.23,0,0,0,20,15.93a2.15,2.15,0,0,0-.69-1.54Zm1.61,4.72h0c-.18.19-.36.36-.55.55a11.8,11.8,0,0,0-.87.9,2.17,2.17,0,0,1-1.69.71h-.21a9.79,9.79,0,0,1-3.51-1A20,20,0,0,1,5,12.56,18.17,18.17,0,0,1,1.74,7.19a6.37,6.37,0,0,1-.5-2.8,2.05,2.05,0,0,1,.62-1.33L3.39,1.53a1,1,0,0,1,.68-.32,1,1,0,0,1,.66.31h0c.27.26.54.52.81.8L6,2.77,7.21,4a.85.85,0,0,1,0,1.39l-.39.39c-.38.39-.74.74-1.13,1.09l0,0a.91.91,0,0,0-.23,1v0A9.81,9.81,0,0,0,6.9,10.3h0a16.49,16.49,0,0,0,4,3.62,6.15,6.15,0,0,0,.55.3c.16.08.32.16.45.24l.05,0a1,1,0,0,0,.45.11,1,1,0,0,0,.68-.31l1.54-1.53a1,1,0,0,1,.68-.34.92.92,0,0,1,.65.33h0l2.48,2.47A.88.88,0,0,1,18.45,16.64Z"/></svg>