<svg xmlns="http://www.w3.org/2000/svg" width="32" height="32" viewBox="0 0 32 32"><defs><clipPath id="j7tia"><path fill="#fff" d="M16 0c8.836 0 16 7.163 16 16s-7.163 16-16 16S0 24.837 0 16 7.163 0 16 0z"/></clipPath></defs><g><g><path fill="#5d4fc4" d="M16 0c8.836 0 16 7.163 16 16s-7.163 16-16 16S0 24.837 0 16 7.163 0 16 0z"/><path fill="none" stroke="#fff" stroke-miterlimit="50" stroke-width="4" d="M16 0c8.836 0 16 7.163 16 16s-7.163 16-16 16S0 24.837 0 16 7.163 0 16 0z" clip-path="url(&quot;#j7tia&quot;)"/></g><g><path fill="#fff" d="M16 10a1 1 0 0 1 1 1v10a1 1 0 1 1-2 0V11a1 1 0 0 1 1-1z"/></g><g><path fill="#fff" d="M11 15h10a1 1 0 1 1 0 2H11a1 1 0 0 1 0-2z"/></g></g></svg>