<svg id="Слой_1" data-name="Слой 1" xmlns="http://www.w3.org/2000/svg" viewBox="0 0 48 48"><defs><style>.cls-1{fill:#624ec9;}.cls-2{fill:#ff6900;}</style></defs><title>poluchenie_tovara</title><path class="cls-1" d="M45.6,20.8h-4V8a.8.8,0,0,0-.13-.44L37.14,1.07a2.38,2.38,0,0,0-2-1.07H6.46a2.38,2.38,0,0,0-2,1.07L.13,7.56A.8.8,0,0,0,0,8V40.8a2.4,2.4,0,0,0,2.4,2.4H27.2v2.4A2.4,2.4,0,0,0,29.6,48h16A2.4,2.4,0,0,0,48,45.6V23.2A2.4,2.4,0,0,0,45.6,20.8Zm-4,1.6h1.6v2.07L43,24.23a.8.8,0,0,0-1.13,0l-.23.23ZM16,13.6H1.6V8.8H16Zm1.6-4.8H24V19.14L21.3,17a.8.8,0,0,0-1,0l-2.7,2.16Zm8,0H40v4.8H25.6ZM5.8,2a.79.79,0,0,1,.66-.35H35.14a.79.79,0,0,1,.66.36L39.3,7.2H2.3ZM2.4,41.6a.8.8,0,0,1-.8-.8V15.2H16v5.6a.8.8,0,0,0,1.3.62l3.5-2.8,3.5,2.8a.8.8,0,0,0,1.3-.62V15.2H40v5.6H29.6a2.4,2.4,0,0,0-2.4,2.4V41.6Zm44,4a.8.8,0,0,1-.8.8h-16a.8.8,0,0,1-.8-.8V23.2a.8.8,0,0,1,.8-.8H40v4a.8.8,0,0,0,1.37.57l1-1,1,1a.8.8,0,0,0,.57.23.79.79,0,0,0,.31-.06.8.8,0,0,0,.49-.74v-4h.8a.8.8,0,0,1,.8.8Z"/><path class="cls-2" d="M32.8,31.67l-1-1-1.13,1.13,1.6,1.6a.8.8,0,0,0,1.13,0l3.2-3.2L35.43,29Z"/><path class="cls-2" d="M32.8,40.47l-1-1-1.13,1.13,1.6,1.6a.8.8,0,0,0,1.13,0l3.2-3.2-1.13-1.13Z"/><path class="cls-2" d="M38.4,32h6.4v1.6H38.4Z"/><path class="cls-2" d="M38.4,40.8h6.4v1.6H38.4Z"/><path class="cls-2" d="M38.4,37.6h6.4v1.6H38.4Z"/><path class="cls-2" d="M38.4,28.8H40v1.6H38.4Z"/><path class="cls-2" d="M41.6,28.8h3.2v1.6H41.6Z"/></svg>