<svg id="Слой_1" data-name="Слой 1" xmlns="http://www.w3.org/2000/svg" viewBox="0 0 36 46"><defs><style>.cls-1,.cls-2{fill:none;stroke-miterlimit:10;stroke-width:2px;}.cls-1{stroke:#624ec9;stroke-linecap:round;}.cls-2{stroke:#ff6900;}.cls-3{fill:#ff6900;}</style></defs><title>warantly_1</title><path class="cls-1" d="M1,6.74v22C1,38.25,18,45,18,45s17-6.75,17-16.26v-22"/><path class="cls-1" d="M18,1S11.87,6.74,1,6.74"/><path class="cls-1" d="M18,1s6.13,5.74,17,5.74"/><ellipse class="cls-2" cx="18" cy="23" rx="8.5" ry="8.61"/><path class="cls-3" d="M15.33,27V19.06l2.37,0c2.13,0,2.83,1.07,2.83,2.44A2.28,2.28,0,0,1,19,23.73L21.46,27H19.81l-2.15-3h-1v3Zm1.37-6.6v2.35h.89c.79,0,1.49-.41,1.49-1.22,0-.62-.33-1.15-1.45-1.15Z"/></svg>