<svg id="Слой_1" data-name="Слой 1" xmlns="http://www.w3.org/2000/svg" viewBox="0 0 24 24"><defs><style>.cls-1{fill:#201600;}.cls-2{fill:none;stroke:#201600;stroke-linecap:round;stroke-miterlimit:10;stroke-width:2px;}</style></defs><title>zoom_icon</title><path class="cls-1" d="M10,2a8,8,0,1,1-8,8,8,8,0,0,1,8-8m0-2A10,10,0,1,0,20,10,10,10,0,0,0,10,0Z"/><line class="cls-2" x1="10" y1="13" x2="10" y2="7"/><line class="cls-2" x1="13" y1="10" x2="7" y2="10"/><path class="cls-1" d="M23.71,22.29,17,15.57A5.68,5.68,0,0,1,15.54,17l6.75,6.75a1,1,0,0,0,1.41-1.41Z"/></svg>